# File created by Blade
# Date/Time:  Thu Jan 22 16:36:26 2015
# Frame Rate: 120.000 fps
#------------------------------------------------------
:FULLY-SPECIFIED
:DEGREES
1859
root 0.630350 5.013773 -9.020941 -21.640795 -13.733683 23.802621
RightUpLeg -102.687781 -8.662785 56.150157
RightLeg 137.766475 -0.000000 -0.000000
RightFoot -6.753457 16.312936 -39.638709
RightToeBase -250.194223 -0.000000 -0.000000
LeftUpLeg -18.006730 -7.107906 43.913373
LeftLeg 147.575776 -0.000000 -0.000000
LeftFoot 27.186451 6.869938 -19.694591
LeftToeBase 11.844477 -0.000000 -0.000000
Spine 34.955393 15.969365 -16.216394
RightShoulder 8.477885 -14.362251 -20.773103
RightArm 31.792870 -31.410346 61.869111
RightForeArm -36.390615 -0.000000 79.385605
RightHand 1.805883 -0.000000 -9.040776
RightHandThumb1 -24.326973 -0.000000 -32.862282
LeftShoulder -24.852468 28.859450 -6.754078
LeftArm 31.862026 -9.960041 -77.406728
LeftForeArm 25.823866 0.000000 26.538371
LeftHand -7.911328 -0.000000 -22.276562
LeftHandThumb1 -26.253704 0.000000 33.147579
Head -21.654636 6.543449 -15.246608
1860
root 0.625015 5.016412 -9.019731 -21.670071 -13.743405 23.844045
RightUpLeg -102.678105 -8.665604 56.124500
RightLeg 137.828358 -0.000000 -0.000000
RightFoot -6.706937 16.270336 -39.944932
RightToeBase -250.735954 -0.000000 -0.000000
LeftUpLeg -17.971275 -7.090371 43.851621
LeftLeg 147.554320 -0.000000 -0.000000
LeftFoot 27.178719 6.886841 -19.677081
LeftToeBase 11.834907 -0.000000 -0.000000
Spine 35.042324 15.971883 -16.205206
RightShoulder 8.490955 -14.367234 -20.845082
RightArm 31.802298 -31.412031 61.919116
RightForeArm -36.463635 -0.000000 79.440562
RightHand 1.788933 -0.000000 -9.029450
RightHandThumb1 -24.326973 -0.000000 -32.862282
LeftShoulder -24.790833 28.864553 -6.832160
LeftArm 31.903841 -9.886555 -77.193398
LeftForeArm 25.650735 -0.000000 26.466054
LeftHand -7.835249 -0.000000 -22.279757
LeftHandThumb1 -26.253704 0.000000 33.147579
Head -21.731480 6.536074 -15.313958
1861
root 0.619329 5.018772 -9.018849 -21.693426 -13.761174 23.893726
RightUpLeg -102.661818 -8.651574 56.093403
RightLeg 137.886343 -0.000000 -0.000000
RightFoot -6.711022 16.285455 -40.348050
RightToeBase -251.231196 -0.000000 -0.000000
LeftUpLeg -17.928594 -7.070233 43.793647
LeftLeg 147.534184 -0.000000 -0.000000
LeftFoot 27.150878 6.899073 -19.700365
LeftToeBase 11.856891 -0.000000 -0.000000
Spine 35.114753 15.992223 -16.196334
RightShoulder 8.552370 -14.325550 -20.911509
RightArm 31.697596 -31.398199 62.025522
RightForeArm -36.532159 0.000000 79.542730
RightHand 1.746775 -0.000000 -8.999848
RightHandThumb1 -24.326973 -0.000000 -32.862282
LeftShoulder -24.685923 28.860878 -6.878829
LeftArm 31.928031 -9.871900 -77.024088
LeftForeArm 25.507016 -0.000000 26.378513
LeftHand -7.781228 0.000000 -22.369709
LeftHandThumb1 -26.253704 0.000000 33.147579
Head -21.782104 6.496846 -15.375611
1862
root 0.614342 5.021510 -9.017237 -21.731168 -13.760720 23.938177
RightUpLeg -102.654783 -8.663298 56.059646
RightLeg 137.937679 -0.000000 -0.000000
RightFoot -6.592631 16.231014 -40.607959
RightToeBase -251.776680 -0.000000 -0.000000
LeftUpLeg -17.900447 -7.053193 43.726260
LeftLeg 147.516038 -0.000000 -0.000000
LeftFoot 27.136568 6.944173 -19.668593
LeftToeBase 11.871672 -0.000000 -0.000000
Spine 35.212361 15.990896 -16.190752
RightShoulder 8.594724 -14.321354 -20.983958
RightArm 31.674027 -31.382569 62.081818
RightForeArm -36.564230 0.000000 79.620924
RightHand 1.739372 0.000000 -9.019132
RightHandThumb1 -24.326973 -0.000000 -32.862282
LeftShoulder -24.583252 28.862264 -6.902445
LeftArm 31.946872 -9.768924 -76.814307
LeftForeArm 25.302973 -0.000000 26.267208
LeftHand -7.761012 -0.000000 -22.397800
LeftHandThumb1 -26.253704 0.000000 33.147579
Head -21.846433 6.484185 -15.430575
